<svg xmlns="http://www.w3.org/2000/svg" width="889.335" height="984.286" viewBox="0 0 889.335 984.286">
  <g id="Group_5" data-name="Group 5" transform="translate(-89.7 -59.767)">
    <path id="Path_9" data-name="Path 9" d="M1560.764,1875.972c3.447-3.586,3.483-23.663,2.531-28.9-2.767-15.186-21.837-46.966-34.828-55.53-.738-.485-6.865.518-7.48-2.042-.317-1.314,1.463-4.55.379-7.48-.46-1.239-10.092-12.849-12.856-12.454l6.13-5.208,1.722-.026c-.191,4.321,9.311,11.5,13.141,13.564,2.061,1.11,4.1-.66,4.317-.46.314.291.33,6.606,1.194,8.451,1.965,4.188,22.714,20.552,27.333,27.64,13.467,20.682,22.446,60.667-3.013,74.956-.748.418-.579,2.919-1.207,3.191-6.314,2.741-23.925.515-31.492-1.663-21.727-6.253-24.265-25.808-49.225-22.711-5.929.738-10.115,6.347-15.973,7.137-2.761,5.169-4.039,11.69-9.47,13.826-2.415.952-8.2.906-11.367,2.593l-1.45-2.5a3.346,3.346,0,0,0,.388-.022c-1.777-6.405,4.282-7.033,7.327-10.584,16.024-18.7,27.893-34.9,53.128-17.552.867.6,2.855-.107,3.263.2.324.243-.418,2.871.158,3.321,14.3,11.14,35.191,28.744,52.766,13.179.968-.855,4.1-.421,4.583-.929Z" transform="translate(-883.659 -1285.525)" fill="#c5a36a"/>
    <path id="Path_17" data-name="Path 17" d="M1273.538,2181.843c25.68,16.921,30.935,49.008,15.53,74.315-1.324,2.175-9.182,6.923-9.843,11.205-.57,3.7,4.78,6.758.692,12.409l-50.746-.994h-.065l-50.746.994c-4.088-5.651,1.262-8.706.693-12.409-.66-4.282-8.518-9.03-9.842-11.205-15.406-25.307-10.15-57.394,15.529-74.315,6.871-4.532,14.646-6.244,20.546-13.506,2.793-3.437,3.382-5.716,2.715-7.266h42.276c-.667,1.55-.078,3.829,2.715,7.266C1258.893,2175.6,1266.667,2177.311,1273.538,2181.843Z" transform="translate(-695.253 -1553.857)" fill="#206783"/>
    <path id="Path_18" data-name="Path 18" d="M1320.2,1624.971c7.269,19.905-18.031,10.538-20.782,13.351H1250.2c-2.751-2.813-28.051,6.554-20.782-13.351,2.211-6.046,27.54-1.007,33-2.353H1287.2c5.463,1.346,30.793-3.693,33,2.353Z" transform="translate(-740.925 -1189.206)" fill="#206783"/>
    <path id="Path_20" data-name="Path 20" d="M1335.794,1443.907c7.583,3.625,5.149,21.8.677,27.148-.608.729-4.593,1.388-5.968,3.706-2.269,3.816.071,8.088-.677,10.577-1.007,3.363-9.509,7.868-5.871,16.248h-24.779c3.638-8.379-4.865-12.885-5.871-16.248-.748-2.489,1.593-6.761-.676-10.577-1.376-2.318-5.36-2.977-5.968-3.706-4.473-5.35-6.907-23.524.677-27.148,1.608-.771,12.687-1.052,24.2-.9h.065c11.509-.152,22.588.13,24.2.9Z" transform="translate(-777.679 -1068.173)" fill="#c5a36a"/>
    <path id="Path_22" data-name="Path 22" d="M1326.614,1813.64c4.486,3.428,2.3,12.674,6.586,12.674l1.45,2.5a4.01,4.01,0,0,0-1.916,1.884h-42.276a3.231,3.231,0,0,0-.618-.929l.12-3.454c4.333.049,2.123-9.237,6.619-12.674-23.362-16.707-12.875-49.17-2.586-70.732-.34-1.942-13.979-2.745-9.192-10.1,2.2-3.379,8.855-1.473,10.024-2.078,5.065-2.631,1.793-21.611,1.732-26.226-.045-3.178,1.7-22.323.906-23.161-.33-.346-8.748-.5-9.464-1.019-1.5-1.1-.741-7.448-1.013-7.726h49.222c-.272.279.485,6.625-1.013,7.726-.715.521-9.134.673-9.464,1.019-.8.838.952,19.983.906,23.161-.061,4.615-3.334,23.594,1.732,26.226,1.168.605,7.823-1.3,10.024,2.078,4.787,7.353-8.852,8.156-9.192,10.1,10.289,21.562,20.776,54.024-2.586,70.732Z" transform="translate(-777.709 -1223.483)" fill="#c5a36a"/>
    <path id="Path_23" data-name="Path 23" d="M1020.643,1888.355l-.12,3.453c-2.528-2.68-9.865-2.444-12.665-3.547-5.431-2.136-6.709-8.658-9.47-13.827-5.858-.79-10.043-6.4-15.973-7.137-24.96-3.1-27.5,16.458-49.225,22.711-7.567,2.178-25.177,4.4-31.492,1.664-.628-.272-.46-2.774-1.207-3.191-25.459-14.289-16.48-54.274-3.013-74.956,4.619-7.088,25.368-23.452,27.333-27.64.864-1.844.88-8.159,1.194-8.451.214-.2,2.256,1.57,4.318.46,3.829-2.062,13.331-9.244,13.141-13.564l1.722.026,6.13,5.207c-2.764-.394-12.4,11.215-12.856,12.455-1.084,2.929.7,6.166.379,7.479-.615,2.56-6.742,1.557-7.479,2.042-12.992,8.564-32.062,40.344-34.829,55.53-.952,5.24-.916,25.317,2.531,28.9.485.508,3.615.074,4.583.929,17.575,15.565,38.47-2.039,52.766-13.179.576-.45-.165-3.078.158-3.321.408-.311,2.4.392,3.263-.2,25.236-17.345,37.1-1.146,53.128,17.552,3.046,3.551,9.1,4.178,7.328,10.584A2.747,2.747,0,0,0,1020.643,1888.355Z" transform="translate(-508.393 -1285.524)" fill="#c5a36a"/>
    <g id="Group_1" data-name="Group 1" transform="translate(158.49 118.365)">
      <path id="Path_26" data-name="Path 26" d="M225.519,1992.68H212.6l-.058.091h12.979l.042-.045Zm172.467.045a.374.374,0,0,0-.055-.045h-12.8c-.029.016-.061.029-.091.045.029.016.062.029.091.045h12.917A.728.728,0,0,0,397.986,1992.725Z" transform="translate(-212.54 -1558.332)" fill="#206783"/>
      <path id="Path_27" data-name="Path 27" d="M1968.827,1992.68h-12.8a.369.369,0,0,0-.055.046.709.709,0,0,0-.059.045h12.917c.029-.016.062-.029.091-.045C1968.889,1992.709,1968.856,1992.7,1968.827,1992.68Zm172.558.045-.029-.045h-12.92l-.042.045.042.045h12.979Z" transform="translate(-1391.656 -1558.332)" fill="#206783"/>
      <path id="Path_28" data-name="Path 28" d="M319.511,793.578,315.7,977.091l-98.3,100.806-4.687,7.13h12.92l.042.045L315.465,990.8c7.868-4.609,8.477,17.94,10.383,23.365,7.713,21.95,29,51.717,48.037,65.434,1.165.838,6.376,3.007,11.273,5.476.029-.016.062-.029.091-.045h12.8c-6.917-5.577-16.393-8.166-24.038-14.765-15.947-13.755-34.389-42.558-41.5-62.359-2.447-6.81-8.794-25.09-6.473-30.98,4.117-10.461,52.51-39.661,64.327-43.063,26.087-7.506,44.814-.861,70.418,2.767-3.3-16.231-13.917-31.323-16.429-48.445-2.9-19.782,1.764-63.366,13.144-80.151,5-7.376,34.013-6.282,43.076-5.771,30.262,1.706,49.186,9.933,69.408,32.129,3.366,3.7,11.771,16.464,17.526,21.636V846.35c-13.649-15.218-24.316-32.265-43.571-41.37-11.949-5.651-29.32-9.645-42.438-10.629-4.868-.362-27.339,2.185-28.466-1.3l114.474-125.1V650.68c-42.684,47.487-84.481,96.006-129.278,141.493Zm124.76,30.039c-11.788,35.373-9.907,70.428,5.256,104.357-9.127-1.045-19.148-4.878-28.346-5.259-37.5-1.563-65.233,17.147-92.534,40.24l2.586-158.093h118.73C454.181,806.744,445.326,820.451,444.271,823.616Z" transform="translate(-212.662 -650.68)" fill="#206783"/>
      <path id="Path_29" data-name="Path 29" d="M1741,1077.9l-98.3-100.806-3.806-183.514-138.723-1.4c-44.8-45.487-86.594-94.006-129.278-141.493v17.274l114.474,125.1c-1.126,3.483-23.6.935-28.466,1.3-13.118.984-30.489,4.978-42.438,10.629-19.255,9.1-29.922,26.151-43.571,41.37v9.677c5.755-5.172,14.16-17.94,17.526-21.636,20.222-22.2,39.146-30.424,69.408-32.129,9.063-.511,38.075-1.605,43.076,5.771,11.38,16.785,16.047,60.369,13.144,80.151-2.512,17.122-13.13,32.214-16.429,48.445,25.6-3.628,44.331-10.273,70.418-2.767,11.817,3.4,60.21,32.6,64.327,43.063,2.32,5.89-4.027,24.171-6.473,30.98-7.111,19.8-25.553,48.6-41.5,62.359-7.645,6.6-17.121,9.189-24.038,14.765h12.8c.029.016.062.029.091.045,4.9-2.47,10.108-4.638,11.273-5.476,19.041-13.717,40.324-43.483,48.037-65.434,1.906-5.424,2.515-27.974,10.383-23.365l89.783,94.275.042-.045h12.92l-4.687-7.13ZM1537.221,922.714c-9.2.382-19.219,4.214-28.346,5.259,15.163-33.929,17.044-68.984,5.256-104.357-1.055-3.165-9.911-16.872-5.693-18.756h118.73l2.586,158.093C1602.454,939.861,1574.716,921.151,1537.221,922.714Z" transform="translate(-995.982 -650.68)" fill="#206783"/>
    </g>
    <g id="Group_2" data-name="Group 2" transform="translate(158.49 552.713)">
      <path id="Path_30" data-name="Path 30" d="M501.381,2283.447c13.118-.984,30.488-4.978,42.438-10.628,19.254-9.1,29.922-26.152,43.571-41.37v-9.677c-5.755,5.171-14.16,17.94-17.526,21.636-20.222,22.2-39.146,30.424-69.408,32.129-9.062.512-38.075,1.605-43.075-5.771-11.38-16.785-16.047-60.368-13.144-80.15,2.512-17.121,13.131-32.213,16.429-48.445-25.6,3.628-44.331,10.273-70.418,2.767-11.817-3.4-60.21-32.6-64.327-43.062-2.321-5.891,4.026-24.17,6.473-30.98,7.111-19.8,25.553-48.6,41.5-62.359,7.645-6.6,17.118-9.192,24.035-14.765a.711.711,0,0,0,.058-.045c.019-.013.039-.029.058-.045H385.127c-.029.016-.061.029-.091.045-4.9,2.469-10.108,4.635-11.273,5.476-19.041,13.717-40.324,43.483-48.037,65.434-1.906,5.424-2.515,27.974-10.383,23.365l-89.783-94.275-.042-.045H212.54l.058.09,4.687,7.13,98.3,100.806,3.806,183.513,138.723,1.4c44.8,45.487,86.595,94.006,129.278,141.493v-17.274l-114.474-125.1C474.042,2281.263,496.513,2283.81,501.381,2283.447Zm-51.539-10.509H331.112l-2.586-158.094c27.3,23.093,55.038,41.8,92.534,40.241,9.2-.382,19.219-4.215,28.346-5.26-15.163,33.929-17.044,68.984-5.256,104.357C445.2,2257.348,454.059,2271.055,449.842,2272.938Z" transform="translate(-212.54 -1992.681)" fill="#206783"/>
      <path id="Path_31" data-name="Path 31" d="M1732.762,1992.68l-.042.046L1642.937,2087c-7.868,4.609-8.477-17.94-10.383-23.365-7.713-21.951-29-51.717-48.037-65.434-1.165-.842-6.376-3.007-11.273-5.476-.029-.016-.062-.029-.091-.046h-12.917c.02.016.039.032.058.046a.714.714,0,0,0,.058.045c6.917,5.573,16.39,8.166,24.035,14.766,15.946,13.755,34.389,42.557,41.5,62.359,2.447,6.81,8.793,25.09,6.473,30.981-4.117,10.46-52.51,39.661-64.327,43.062-26.086,7.506-44.813.861-70.418-2.767,3.3,16.231,13.917,31.324,16.429,48.445,2.9,19.782-1.764,63.366-13.144,80.15-5,7.376-34.013,6.282-43.076,5.771-30.262-1.706-49.186-9.933-69.408-32.129-3.366-3.7-11.771-16.465-17.526-21.636v9.677c13.649,15.219,24.316,32.265,43.571,41.37,11.949,5.651,29.32,9.645,42.438,10.629,4.868.363,27.339-2.185,28.466,1.3l-114.475,125.1v17.273c42.684-47.487,84.481-96.006,129.278-141.493l138.723-1.405,3.806-183.514L1741,1999.9l4.687-7.13.029-.045.029-.045Zm-105.593,280.258h-118.73c-4.217-1.884,4.638-15.591,5.693-18.756,11.788-35.373,9.907-70.428-5.256-104.357,9.127,1.045,19.148,4.878,28.346,5.26,37.5,1.563,65.233-17.147,92.534-40.24Z" transform="translate(-995.982 -1992.68)" fill="#206783"/>
    </g>
    <g id="Group_3" data-name="Group 3" transform="translate(89.7 230.059)">
      <path id="Path_39" data-name="Path 39" d="M567.9,1003.244l-15.562,15.561L427.858,1012.2l5.719,125.362-16.154,16.154L409.96,995.78Z" transform="translate(-277.274 -995.78)" fill="#c5a36a"/>
      <path id="Path_40" data-name="Path 40" d="M572.895,2693.255l-157.935,7.46,7.464-157.935,16.154,16.157L432.858,2684.3l124.475-6.606Z" transform="translate(-280.655 -2042.083)" fill="#c5a36a"/>
      <path id="Path_41" data-name="Path 41" d="M155.054,1809.844v29.178L0,1697.956,155.054,1556.89v30.288L32.168,1699.345Z" transform="translate(0 -1375.283)" fill="#c5a36a"/>
    </g>
    <g id="Group_4" data-name="Group 4" transform="translate(392.154 59.767)">
      <path id="Path_42" data-name="Path 42" d="M1219.321,624.685h-30.288L1077.906,502.938,966.778,624.685H936.49L1077.556,469.63l.349.385.349-.385Z" transform="translate(-935.843 -469.63)" fill="#c5a36a"/>
      <path id="Path_43" data-name="Path 43" d="M1218.616,3031.024,1077.55,3186.078l-1.11-1.22v-.075l-.884.971L934.49,3030.7h30.288l111.888,122.581v.075l111.662-122.332Z" transform="translate(-934.49 -2201.792)" fill="#c5a36a"/>
      <path id="Path_44" data-name="Path 44" d="M1849.84,1003.244l15.561,15.561,124.476-6.606-5.719,125.362,16.154,16.154,7.464-157.935Z" transform="translate(-1553.581 -825.488)" fill="#c5a36a"/>
      <path id="Path_45" data-name="Path 45" d="M1844.84,2693.255l157.935,7.46-7.463-157.935-16.154,16.157,5.719,125.362-124.475-6.606Z" transform="translate(-1550.199 -1871.791)" fill="#c5a36a"/>
      <path id="Path_46" data-name="Path 46" d="M2268.7,1809.844v29.178l155.054-141.066L2268.7,1556.89v30.288l122.886,112.167Z" transform="translate(-1836.874 -1204.991)" fill="#c5a36a"/>
    </g>
  </g>
</svg>
